<svg width="93" height="38" viewBox="0 0 93 38" fill="none" xmlns="http://www.w3.org/2000/svg">
<g clip-path="url(#clip0_40001668_13917)">
<path d="M43.0996 0.212621C43.2135 0.236813 43.3274 0.260948 43.4413 0.285032C43.7525 0.350995 44.0635 0.41775 44.3745 0.48464C44.7082 0.556251 45.0419 0.627128 45.3757 0.698094C46.025 0.836284 46.6742 0.975148 47.3234 1.11424C48.0786 1.276 48.8339 1.43705 49.5892 1.59807C51.1309 1.92677 52.6725 2.25639 54.2141 2.58633C54.2887 2.6023 54.3634 2.61828 54.4403 2.63475C54.5144 2.65061 54.5886 2.66648 54.6649 2.68283C55.4244 2.84537 56.184 3.00768 56.9435 3.16997C58.857 3.57885 60.7706 3.98773 62.6839 4.39825C62.739 4.41009 62.7942 4.42192 62.851 4.43411C63.3358 4.53815 63.8207 4.6422 64.3056 4.74628C65.557 5.01491 66.8086 5.28239 68.0606 5.54782C68.4741 5.63556 68.8876 5.72362 69.301 5.8117C69.6575 5.88758 70.0139 5.96294 70.3705 6.03782C70.6247 6.09137 70.8788 6.14574 71.1329 6.19999C71.2191 6.21787 71.3052 6.23576 71.394 6.25419C72.2835 6.44585 73.1163 6.72035 73.7054 7.61763C74.2272 8.58801 74.2636 9.47689 74.2513 10.6057C74.2508 10.7632 74.2503 10.9206 74.25 11.0781C74.2488 11.4897 74.2458 11.9011 74.2424 12.3127C74.2392 12.7338 74.2378 13.1549 74.2363 13.576C74.233 14.4001 74.2276 15.2241 74.2212 16.0482C73.3971 15.9903 72.5799 15.8958 71.76 15.7804C71.6324 15.7627 71.5048 15.745 71.3772 15.7273C71.0298 15.6792 70.6824 15.6306 70.3351 15.582C69.9592 15.5295 69.5833 15.4774 69.2074 15.4252C68.557 15.3349 67.9067 15.2443 67.2563 15.1537C66.2279 15.0103 65.1995 14.8677 64.171 14.7252C63.8187 14.6763 63.4663 14.6275 63.1139 14.5787C63.0259 14.5665 62.9378 14.5542 62.8471 14.5417C61.8467 14.403 60.8463 14.2642 59.8459 14.1253C59.7545 14.1126 59.6631 14.1 59.569 14.0869C58.0868 13.8811 56.6046 13.6748 55.1225 13.4683C53.5989 13.256 52.0753 13.0446 50.5516 12.8339C49.6127 12.704 48.6738 12.5735 47.735 12.442C47.0919 12.3521 46.4488 12.2629 45.8056 12.1743C45.4347 12.1232 45.0638 12.0718 44.6931 12.0194C44.3533 11.9714 44.0135 11.9244 43.6736 11.8782C43.551 11.8614 43.4285 11.8442 43.306 11.8265C42.6212 11.7282 41.9727 11.6829 41.2855 11.7975C41.187 11.8134 41.187 11.8134 41.0866 11.8296C40.889 11.8636 40.692 11.9013 40.4949 11.94C40.421 11.9542 40.3471 11.9685 40.2709 11.9831C40.026 12.0302 39.7812 12.078 39.5364 12.1257C39.3595 12.1599 39.1826 12.1941 39.0057 12.2282C38.5263 12.3208 38.0469 12.4138 37.5675 12.507C37.1128 12.5953 36.6582 12.6832 36.2035 12.7711C35.2988 12.946 34.3942 13.1212 33.4896 13.2967C32.6213 13.4652 31.7529 13.6335 30.8844 13.8016C30.8314 13.8118 30.7783 13.8221 30.7237 13.8327C30.4038 13.8946 30.0839 13.9565 29.764 14.0184C29.2897 14.1102 28.8155 14.202 28.3412 14.2938C28.2897 14.3038 28.2383 14.3137 28.1853 14.324C27.441 14.468 26.6968 14.6122 25.9526 14.7565C25.1345 14.9151 24.3164 15.0736 23.4983 15.2318C23.0412 15.3202 22.5841 15.4087 22.1271 15.4974C21.662 15.5875 21.197 15.6775 20.7319 15.7673C20.5573 15.801 20.3827 15.8348 20.2081 15.8688C19.9689 15.9152 19.7297 15.9613 19.4904 16.0074C19.3842 16.0282 19.3842 16.0282 19.2759 16.0493C19.2112 16.0617 19.1465 16.0741 19.0799 16.0869C18.9959 16.1031 18.9959 16.1031 18.9101 16.1197C18.7626 16.1427 18.7626 16.1427 18.5312 16.1427C18.5396 15.4084 18.5483 14.6742 18.5574 13.94C18.5616 13.5988 18.5657 13.2577 18.5696 12.9166C18.6243 8.11211 18.6243 8.11211 19.4116 6.98998C19.9647 6.43853 20.6249 6.21129 21.3071 6.0118C21.3976 5.98437 21.4881 5.95693 21.5813 5.92866C21.831 5.85319 22.0808 5.77872 22.3307 5.70467C22.602 5.62404 22.8729 5.54208 23.1439 5.46026C23.6172 5.3175 24.0906 5.17548 24.5642 5.03381C25.3369 4.8025 26.1091 4.56825 26.8812 4.33366C29.9213 3.41037 32.9632 2.49615 36.0065 1.5885C36.0675 1.5703 36.1285 1.55211 36.1913 1.53336C36.4926 1.44349 36.794 1.35376 37.0954 1.26431C37.679 1.09096 38.2622 0.916057 38.8447 0.737373C39.1351 0.648396 39.4255 0.560066 39.716 0.471778C39.8552 0.429262 39.9944 0.386432 40.1335 0.343268C40.3269 0.283268 40.5206 0.224363 40.7143 0.165668C40.7709 0.147801 40.8275 0.129935 40.8858 0.111526C41.6497 -0.116909 42.3361 0.0471908 43.0996 0.212621Z" fill="white"/>
<path d="M43.7746 15.3518C43.904 15.3685 44.0335 15.3852 44.163 15.4018C44.5153 15.4473 44.8674 15.4936 45.2196 15.5402C45.6007 15.5904 45.9819 15.6397 46.3632 15.6892C47.1084 15.7859 47.8535 15.8835 48.5986 15.9813C49.4668 16.0953 50.3351 16.2084 51.2033 16.3214C52.7523 16.5231 54.3013 16.7255 55.8502 16.9284C57.3527 17.1252 58.8552 17.3216 60.3578 17.5175C60.4967 17.5356 60.4967 17.5356 60.6385 17.5541C61.0109 17.6026 61.3833 17.6512 61.7556 17.6997C64.6078 18.0716 67.46 18.4438 70.3121 18.8171C70.6111 18.8563 70.9101 18.8954 71.2091 18.9345C71.5533 18.9794 71.8974 19.0245 72.2416 19.0696C72.366 19.0859 72.4905 19.1022 72.6149 19.1184C72.7842 19.1405 72.9535 19.1627 73.1228 19.1849C73.2168 19.1972 73.3108 19.2095 73.4077 19.2222C73.7056 19.2631 74.0029 19.3082 74.3003 19.3545C74.3562 20.2388 74.3862 21.1119 74.3774 21.9993C73.5222 21.9422 72.6727 21.8532 71.8212 21.7416C71.6926 21.725 71.564 21.7085 71.4353 21.6919C71.1581 21.6562 70.8809 21.6202 70.6037 21.5841C70.1524 21.5253 69.7011 21.467 69.2498 21.4088C68.6793 21.3351 68.1087 21.2613 67.5382 21.1873C66.4169 21.042 65.2956 20.8975 64.1743 20.7534C63.9973 20.7306 63.8204 20.7079 63.6434 20.6851C63.3753 20.6506 63.1072 20.6162 62.8391 20.5817C61.8303 20.452 60.8215 20.3222 59.8127 20.1924C59.7206 20.1805 59.6285 20.1686 59.5335 20.1564C58.0401 19.9641 56.5468 19.7707 55.0535 19.577C53.5177 19.3777 51.9816 19.1799 50.4455 18.9833C49.4995 18.8621 48.5536 18.7399 47.6078 18.6162C46.9594 18.5315 46.3109 18.4482 45.6622 18.3659C45.2886 18.3184 44.915 18.2704 44.5416 18.2207C44.1989 18.1752 43.856 18.1314 43.513 18.0888C43.3899 18.0732 43.2668 18.0571 43.1437 18.0402C42.2689 17.9207 41.4634 17.9733 40.5932 18.1265C40.4426 18.1504 40.2919 18.1744 40.1413 18.1983C40.0084 18.2211 39.8756 18.2441 39.7428 18.2673C39.6681 18.2802 39.5933 18.2931 39.5163 18.3063C39.2714 18.3486 39.0266 18.3912 38.7818 18.4337C38.6038 18.4645 38.4259 18.4953 38.2479 18.526C37.7679 18.6089 37.2879 18.6922 36.808 18.7755C36.3527 18.8545 35.8975 18.9332 35.4422 19.0119C34.5376 19.1683 33.6331 19.325 32.7285 19.4818C31.8591 19.6325 30.9897 19.7831 30.1202 19.9336C30.0669 19.9428 30.0136 19.952 29.9587 19.9615C29.4253 20.0539 28.8918 20.1462 28.3584 20.2385C28.1483 20.2749 27.9381 20.3112 27.728 20.3476C27.624 20.3656 27.52 20.3836 27.416 20.4016C26.6701 20.5307 25.9243 20.6599 25.1785 20.7891C24.3712 20.929 23.5639 21.0687 22.7566 21.2081C22.3378 21.2804 21.919 21.3529 21.5003 21.4255C21.1046 21.4941 20.709 21.5624 20.3133 21.6306C20.1686 21.6555 20.0239 21.6806 19.8793 21.7057C19.683 21.7398 19.4868 21.7736 19.2905 21.8073C19.2333 21.8173 19.1762 21.8273 19.1173 21.8376C18.867 21.8803 18.6324 21.9049 18.3789 21.9049C18.3789 21.0632 18.3789 20.2216 18.3789 19.3545C18.6422 19.3066 18.9055 19.2587 19.1767 19.2093C21.5966 18.7692 24.0164 18.329 26.4363 17.8888C26.7541 17.831 27.0719 17.7732 27.3897 17.7154C27.4529 17.7039 27.5162 17.6923 27.5814 17.6805C28.6028 17.4947 29.6243 17.3089 30.6458 17.1231C31.6955 16.9321 32.7453 16.7412 33.7951 16.5502C34.4417 16.4325 35.0884 16.3149 35.735 16.1973C36.1798 16.1164 36.6245 16.0355 37.0692 15.9546C37.325 15.9081 37.5807 15.8615 37.8365 15.815C38.0255 15.7807 38.2146 15.7462 38.4037 15.7118C38.5812 15.6795 38.7588 15.6474 38.9364 15.6154C39.3243 15.5453 39.7118 15.4735 40.0986 15.3947C40.166 15.3813 40.2335 15.3679 40.3029 15.354C40.4227 15.3301 40.5424 15.3053 40.6618 15.2792C41.6941 15.0754 42.7432 15.2135 43.7746 15.3518Z" fill="#8E703C"/>
<path d="M15.5934 29.372C15.7878 29.5266 15.9294 29.676 16.0893 29.8679C16.165 29.7943 16.2407 29.7206 16.3187 29.6448C17.0029 29.0824 17.8191 28.9098 18.6885 28.9435C19.3791 29.0227 19.8653 29.28 20.3541 29.7687C21.1217 31.0394 20.592 32.6645 20.2983 34.0211C20.2652 34.1772 20.2322 34.3333 20.1993 34.4895C20.1198 34.8667 20.0385 35.2435 19.9574 35.6204C19.1718 35.6204 18.3863 35.6204 17.577 35.6204C17.6883 34.619 17.6883 34.619 17.7944 34.1226C17.8164 34.0167 17.8385 33.9109 17.8612 33.8018C17.9075 33.5835 17.954 33.3653 18.0007 33.1471C18.2115 32.1996 18.2115 32.1996 18.0729 31.2564C17.6696 31.079 17.4441 31.0426 17.0129 31.1449C16.4216 31.5242 16.291 32.0801 16.1463 32.7399C16.0678 33.1188 15.9943 33.4985 15.922 33.8785C15.8765 34.1128 15.8307 34.347 15.7845 34.5811C15.7559 34.726 15.7279 34.871 15.7003 35.0162C15.6044 35.5102 15.6044 35.5102 15.4942 35.6204C15.3176 35.629 15.1407 35.631 14.9639 35.6301C14.8568 35.6297 14.7497 35.6294 14.6394 35.6291C14.5267 35.6283 14.414 35.6274 14.2979 35.6266C14.1848 35.6261 14.0717 35.6257 13.9552 35.6252C13.6748 35.624 13.3944 35.6224 13.1139 35.6204C13.1355 35.5159 13.157 35.4113 13.1792 35.3036C13.2593 34.9137 13.3379 34.5234 13.416 34.133C13.4499 33.9645 13.4843 33.7961 13.519 33.6277C13.5691 33.3849 13.6177 33.1419 13.666 32.8987C13.6817 32.8242 13.6974 32.7497 13.7136 32.6729C13.804 32.2085 13.8179 31.8246 13.709 31.3556C13.5143 31.1297 13.5143 31.1297 13.2131 31.0581C12.7976 31.0787 12.5197 31.1632 12.2128 31.4494C11.9476 31.8726 11.8677 32.2957 11.7688 32.7813C11.748 32.8779 11.7272 32.9745 11.7057 33.0739C11.5579 33.7655 11.4185 34.4591 11.2868 35.1539C11.2295 35.422 11.2295 35.422 11.1303 35.6204C10.3448 35.6204 9.55931 35.6204 8.75 35.6204C8.91361 34.448 9.14789 33.2915 9.38162 32.1314C9.45097 31.787 9.5198 31.4425 9.58858 31.098C9.63252 30.8788 9.67649 30.6597 9.72049 30.4405C9.74105 30.3376 9.76161 30.2348 9.7828 30.1287C9.80201 30.0336 9.82121 29.9385 9.84101 29.8406C9.86621 29.7152 9.86621 29.7152 9.89192 29.5874C9.94016 29.372 9.94016 29.372 10.0393 29.0745C10.7921 29.0745 11.5449 29.0745 12.3205 29.0745C12.3205 29.2054 12.3205 29.3363 12.3205 29.4712C12.3732 29.4437 12.4258 29.4162 12.4801 29.3879C12.5502 29.352 12.6202 29.3161 12.6924 29.279C12.7614 29.2434 12.8305 29.2077 12.9016 29.171C13.7806 28.7715 14.7693 28.9081 15.5934 29.372Z" fill="white"/>
<path d="M1.01295 27.1901C1.83119 27.1901 2.64942 27.1901 3.49246 27.1901C3.42567 27.8579 3.34447 28.4854 3.20654 29.1369C3.1702 29.3149 3.13391 29.4929 3.09767 29.671C3.04099 29.9468 2.9839 30.2225 2.9259 30.4981C2.86947 30.7673 2.81474 31.0368 2.76023 31.3065C2.74267 31.3877 2.72511 31.4689 2.70703 31.5526C2.5995 32.0922 2.56557 32.6014 2.69901 33.1409C2.88752 33.3841 3.0222 33.5009 3.29409 33.6368C3.89489 33.6878 4.49332 33.7334 4.98016 33.3393C5.56302 32.4997 5.69343 31.4683 5.88518 30.4878C5.91849 30.3225 5.95194 30.1572 5.98552 29.9919C6.05047 29.6716 6.11477 29.3511 6.17855 29.0305C6.30148 28.4156 6.43407 27.8029 6.56704 27.1901C7.38527 27.1901 8.20351 27.1901 9.04654 27.1901C8.88414 28.0833 8.71988 28.976 8.55064 29.868C8.53844 29.9324 8.52623 29.9969 8.51365 30.0634C8.42907 30.5091 8.34162 30.9541 8.2531 31.3991C8.21971 31.574 8.21971 31.574 8.18564 31.7525C7.88719 33.227 7.37259 34.363 6.13313 35.2671C5.02011 35.9398 3.64543 35.9695 2.3852 35.7688C1.56138 35.5456 0.912834 35.1232 0.417871 34.4302C-0.206304 33.3379 -0.0122971 32.1292 0.238107 30.9481C0.260121 30.8397 0.282135 30.7313 0.304816 30.6196C0.374477 30.2779 0.445733 29.9366 0.517051 29.5952C0.564939 29.3617 0.612723 29.1283 0.660397 28.8948C0.776505 28.3262 0.89477 27.7582 1.01295 27.1901Z" fill="white"/>
<path d="M65.1839 29.2726C65.9559 29.8039 66.3895 30.4373 66.5725 31.3554C66.6609 32.6101 66.431 33.6092 65.6798 34.6284C65.0586 35.308 64.2144 35.7252 63.2995 35.8185C62.5402 35.8276 61.9649 35.7193 61.3159 35.3226C61.2505 35.2572 61.185 35.1917 61.1176 35.1243C60.9109 35.9114 60.7388 36.7001 60.5868 37.4992C60.5225 37.8021 60.5225 37.8021 60.4233 38.0005C59.6378 38.0005 58.8523 38.0005 58.043 38.0005C58.1911 36.9811 58.3798 35.9747 58.5826 34.965C58.6155 34.8006 58.6483 34.6361 58.6811 34.4717C58.7494 34.13 58.8179 33.7883 58.8865 33.4467C58.9745 33.0085 59.0619 32.5701 59.1492 32.1317C59.2167 31.7935 59.2844 31.4553 59.3522 31.1171C59.3846 30.9554 59.4169 30.7936 59.4491 30.6318C59.4939 30.407 59.5391 30.1822 59.5844 29.9575C59.61 29.8297 59.6356 29.7019 59.662 29.5702C59.729 29.2726 59.729 29.2726 59.8282 29.0743C60.581 29.0743 61.3338 29.0743 62.1094 29.0743C62.0766 29.2052 62.0439 29.3361 62.0102 29.471C62.0628 29.4435 62.1155 29.416 62.1698 29.3877C62.2399 29.3518 62.3099 29.3159 62.3821 29.2788C62.4511 29.2432 62.5202 29.2075 62.5913 29.1707C63.3903 28.8077 64.4131 28.8646 65.1839 29.2726ZM62.1094 31.1571C61.5966 31.6975 61.4638 32.1394 61.4755 32.8726C61.5366 33.295 61.6935 33.4559 62.0102 33.7357C62.3802 33.8591 62.7169 33.8867 63.1012 33.8349C63.579 33.596 63.8543 33.3204 64.093 32.8431C64.2072 32.3625 64.2368 31.9805 64.0744 31.5104C63.8023 31.1257 63.6281 30.9931 63.1693 30.8719C62.7283 30.857 62.4922 30.9404 62.1094 31.1571Z" fill="white"/>
<path d="M36.5181 26.6934C37.3036 26.6934 38.0891 26.6934 38.8984 26.6934C38.8341 27.3366 38.7615 27.9575 38.6443 28.5902C38.6237 28.7041 38.6237 28.7041 38.6026 28.8203C38.5693 29.004 38.5356 29.1876 38.5017 29.3712C38.5666 29.3426 38.6316 29.3139 38.6985 29.2844C39.5265 28.9476 40.3408 28.8057 41.2106 29.0861C41.7501 29.3266 42.1434 29.6702 42.4627 30.1647C42.8575 31.2876 42.4662 32.6401 42.2271 33.7599C42.1944 33.9191 42.1618 34.0784 42.1293 34.2376C41.893 35.383 41.893 35.383 41.7746 35.6196C40.9891 35.6196 40.2036 35.6196 39.3943 35.6196C39.4631 35.2331 39.5319 34.8467 39.6007 34.4603C39.6356 34.2646 39.6704 34.069 39.7052 33.8733C39.7273 33.7496 39.7493 33.6259 39.7721 33.4984C39.7923 33.3847 39.8126 33.2709 39.8334 33.1537C39.8691 32.9582 39.9064 32.7629 39.9462 32.5682C39.9912 32.3374 40.006 32.1229 40.008 31.8879C40.0094 31.813 40.0108 31.7381 40.0123 31.6609C40.0021 31.4236 40.0021 31.4236 39.791 31.1565C39.3349 31.0217 39.0298 31.0549 38.6009 31.2556C37.7359 31.8993 37.6898 33.2548 37.4913 34.2434C37.464 34.3775 37.4367 34.5116 37.4094 34.6456C37.3433 34.9702 37.2778 35.2949 37.2124 35.6196C36.4268 35.6196 35.6413 35.6196 34.832 35.6196C34.8948 34.9923 34.9626 34.3993 35.0881 33.7868C35.1036 33.7093 35.1191 33.6318 35.1351 33.5519C35.1856 33.2996 35.2368 33.0474 35.288 32.7953C35.3235 32.6188 35.3589 32.4423 35.3943 32.2658C35.487 31.8043 35.5803 31.3429 35.6736 30.8816C35.7691 30.4096 35.8639 29.9375 35.9588 29.4654C36.1447 28.5413 36.3313 27.6173 36.5181 26.6934Z" fill="white"/>
<path d="M31.7572 29.2719C32.0051 29.4889 32.0051 29.4889 32.1539 29.6686C32.2194 29.4723 32.2848 29.2759 32.3523 29.0736C33.1378 29.0736 33.9233 29.0736 34.7326 29.0736C34.569 30.2459 34.3347 31.4025 34.101 32.5625C34.0316 32.9069 33.9628 33.2514 33.894 33.5959C33.8501 33.8151 33.8061 34.0343 33.7621 34.2534C33.7415 34.3563 33.721 34.4592 33.6998 34.5652C33.6806 34.6603 33.6614 34.7554 33.6416 34.8534C33.6248 34.9369 33.608 35.0205 33.5907 35.1065C33.5424 35.3219 33.5424 35.3219 33.4432 35.6194C32.6905 35.6194 31.9377 35.6194 31.1621 35.6194C31.1621 35.5213 31.1621 35.4231 31.1621 35.3219C31.0557 35.3853 30.9494 35.4487 30.8398 35.5141C30.1515 35.8545 29.3986 35.9039 28.6578 35.7124C27.736 35.3815 27.2162 34.81 26.7982 33.9334C26.4987 33.0769 26.6216 31.9119 26.971 31.0959C27.4772 30.1337 28.2238 29.3774 29.2711 29.0395C30.1214 28.8575 30.9791 28.8684 31.7572 29.2719ZM29.5752 31.2555C29.155 31.7727 29.0424 32.1768 29.051 32.8393C29.1079 33.2443 29.3353 33.5252 29.6496 33.7722C30.1671 33.916 30.531 33.9082 30.9947 33.6544C31.0827 33.5828 31.1707 33.5113 31.2613 33.4375C31.3472 33.37 31.3472 33.37 31.4349 33.3011C31.792 32.8368 31.8015 32.3096 31.7572 31.7514C31.639 31.4717 31.639 31.4717 31.4596 31.2555C31.4208 31.1982 31.3819 31.141 31.3419 31.082C30.7474 30.672 30.1105 30.858 29.5752 31.2555Z" fill="white"/>
<path d="M78.3019 29.4457C78.8846 29.9225 79.3998 30.4907 79.4923 31.2681C79.4999 31.49 79.4982 31.7095 79.492 31.9314C79.4915 32.0071 79.491 32.0827 79.4905 32.1606C79.4827 32.7126 79.4827 32.7126 79.368 32.9418C77.797 32.9418 76.226 32.9418 74.6074 32.9418C74.9148 33.5982 74.9148 33.5982 75.2149 33.7787C75.9835 33.929 76.5651 33.8521 77.2725 33.5148C77.4836 33.4377 77.4836 33.4377 77.7812 33.5369C77.9838 33.7965 77.9838 33.7965 78.1965 34.1196C78.3029 34.2788 78.3029 34.2788 78.4115 34.4412C78.5746 34.7271 78.5746 34.7271 78.5746 35.0246C78.4242 35.1039 78.2732 35.1822 78.1221 35.2602C78.0381 35.3039 77.9541 35.3476 77.8676 35.3927C76.6541 35.9375 75.2623 35.9459 74.0123 35.5205C73.2537 35.1472 72.7146 34.622 72.3881 33.834C72.2779 33.4815 72.2778 33.1351 72.2829 32.7683C72.2838 32.6896 72.2848 32.611 72.2858 32.53C72.3179 31.4617 72.6331 30.7524 73.3824 29.9823C74.705 28.7673 76.7318 28.6003 78.3019 29.4457ZM74.9049 31.2682C74.7902 31.4482 74.7902 31.4482 74.8058 31.6525C75.624 31.6525 76.4422 31.6525 77.2853 31.6525C77.2331 31.1693 77.2331 31.1693 76.9815 30.9334C76.2183 30.4787 75.501 30.6349 74.9049 31.2682Z" fill="white"/>
<path d="M51.8916 29.0732C52.7098 29.0732 53.528 29.0732 54.3711 29.0732C54.4856 29.2819 54.6002 29.4905 54.7182 29.7055C54.7544 29.771 54.7907 29.8365 54.828 29.904C55.0653 30.3406 55.0653 30.3406 55.0653 30.561C55.1837 30.4625 55.3013 30.3631 55.4187 30.2634C55.4842 30.2082 55.5498 30.1529 55.6174 30.096C55.857 29.8852 55.857 29.8852 55.9926 29.6666C56.2467 29.3074 56.4179 29.1014 56.8597 29.0093C57.2212 28.9952 57.5741 29.004 57.9354 29.0237C58.0599 29.0272 58.1845 29.0308 58.3129 29.0345C58.6192 29.0438 58.9249 29.0568 59.2309 29.0732C59.09 29.3951 58.9197 29.6051 58.6687 29.8496C58.5964 29.9209 58.5242 29.9921 58.4497 30.0654C58.374 30.139 58.2984 30.2125 58.2205 30.2882C57.7261 30.771 57.2459 31.2565 56.797 31.7822C56.6257 31.9801 56.4442 32.165 56.2555 32.3462C56.3813 32.7578 56.5355 33.1128 56.7518 33.4844C56.8089 33.5837 56.866 33.6829 56.9248 33.7851C57.0138 33.9381 57.0138 33.9381 57.1047 34.0942C57.2231 34.2978 57.341 34.5015 57.4584 34.7056C57.5107 34.7953 57.5629 34.885 57.6167 34.9774C57.7432 35.2224 57.7432 35.2224 57.8424 35.6191C56.9914 35.6191 56.1404 35.6191 55.2637 35.6191C55.0346 35.1609 54.8055 34.7027 54.5694 34.2306C54.1631 34.3916 54.1631 34.3916 53.9929 34.7087C53.7299 35.1061 53.5161 35.4066 53.0817 35.6191C52.1697 35.7761 51.2226 35.6921 50.3047 35.6191C50.8385 34.9761 51.423 34.3956 52.0185 33.8101C52.3828 33.4494 52.7447 33.0863 53.0945 32.7115C53.1807 32.6201 53.1807 32.6201 53.2687 32.5269C53.3986 32.3545 53.3986 32.3545 53.3639 32.158C53.2618 31.904 53.1443 31.6646 53.017 31.4222C52.9645 31.3219 52.9121 31.2216 52.858 31.1183C52.803 31.0141 52.7479 30.91 52.6912 30.8027C52.6366 30.6982 52.5819 30.5937 52.5256 30.486C52.228 29.917 52.228 29.917 51.8916 29.3708C51.8916 29.2726 51.8916 29.1744 51.8916 29.0732Z" fill="white"/>
<path d="M92.756 29.4715C92.5908 30.0828 92.2722 30.6103 91.9625 31.1576C91.7016 31.1128 91.4722 31.0607 91.2276 30.9576C90.9245 30.8424 90.6552 30.8115 90.3323 30.7856C90.224 30.7759 90.1157 30.7662 90.0041 30.7562C89.6594 30.7611 89.4056 30.834 89.0863 30.9592C89.0863 31.0574 89.0863 31.1556 89.0863 31.2567C89.1518 31.2722 89.2172 31.2876 89.2847 31.3035C89.5847 31.3752 89.8841 31.4492 90.1835 31.5233C90.2865 31.5475 90.3894 31.5717 90.4956 31.5967C91.1418 31.7588 91.8049 31.9264 92.1749 32.5333C92.4217 33.0551 92.4082 33.5837 92.2601 34.133C91.967 34.8494 91.4938 35.1982 90.7979 35.506C89.3068 36.0352 87.6674 35.8827 86.2101 35.3231C86.1446 35.2904 86.0792 35.2577 86.0117 35.2239C86.0636 34.7376 86.2102 34.4123 86.4642 33.9966C86.5278 33.8915 86.5913 33.7864 86.6568 33.6781C86.7057 33.5991 86.7547 33.5201 86.8052 33.4387C86.8782 33.4662 86.9512 33.4937 87.0264 33.522C87.1232 33.5579 87.2199 33.5938 87.3197 33.6309C87.4152 33.6665 87.5107 33.7022 87.6091 33.7389C88.097 33.9029 88.5345 33.9502 89.0491 33.9532C89.1609 33.9546 89.2726 33.956 89.3877 33.9575C89.7 33.9572 89.7 33.9572 89.9789 33.7362C89.9789 33.6708 89.9789 33.6053 89.9789 33.5379C89.8226 33.5001 89.8226 33.5001 89.6632 33.4616C87.2318 32.8686 87.2318 32.8686 86.768 32.1308C86.6194 31.4623 86.6236 30.8486 86.9721 30.2463C87.4854 29.5397 88.2255 29.1932 89.0669 29.0163C90.2773 28.8609 91.6628 28.8743 92.756 29.4715Z" fill="white"/>
<path d="M86.2091 29.4714C86.0439 30.0827 85.7253 30.6102 85.4157 31.1574C85.1548 31.1127 84.9253 31.0606 84.6807 30.9575C84.3776 30.8423 84.1083 30.8114 83.7854 30.7855C83.6771 30.7758 83.5688 30.7661 83.4572 30.7561C83.1125 30.761 82.8587 30.8339 82.5394 30.9591C82.5394 31.0573 82.5394 31.1555 82.5394 31.2566C82.6049 31.2721 82.6704 31.2875 82.7378 31.3034C83.0378 31.375 83.3372 31.4491 83.6366 31.5232C83.7396 31.5474 83.8426 31.5716 83.9487 31.5966C84.5949 31.7587 85.258 31.9263 85.628 32.5332C85.8748 33.055 85.8614 33.5836 85.7132 34.1328C85.4202 34.8492 84.9469 35.1981 84.2511 35.5059C82.7599 36.0351 81.1205 35.8826 79.6632 35.323C79.5977 35.2903 79.5323 35.2576 79.4648 35.2238C79.5167 34.7375 79.6633 34.4122 79.9174 33.9965C79.9809 33.8914 80.0444 33.7863 80.1099 33.678C80.1589 33.599 80.2078 33.52 80.2583 33.4386C80.3313 33.4661 80.4043 33.4936 80.4795 33.5219C80.5763 33.5578 80.6731 33.5937 80.7728 33.6307C80.8683 33.6664 80.9638 33.7021 81.0622 33.7388C81.5501 33.9028 81.9876 33.9501 82.5022 33.9531C82.614 33.9545 82.7257 33.9559 82.8408 33.9573C83.1531 33.9571 83.1531 33.9571 83.432 33.7361C83.432 33.6707 83.432 33.6052 83.432 33.5378C83.2758 33.5 83.2758 33.5 83.1163 33.4614C80.6742 32.8659 80.6742 32.8659 80.2211 32.1245C80.0679 31.4503 80.0919 30.7674 80.4566 30.1656C81.7408 28.6567 84.543 28.5611 86.2091 29.4714Z" fill="white"/>
<path d="M26.6328 28.9696C26.8138 28.9727 26.8138 28.9727 26.9985 28.9758C26.9353 29.7222 26.7805 30.4309 26.6018 31.1578C26.5466 31.1543 26.4914 31.1509 26.4345 31.1473C25.8903 31.128 25.3873 31.1595 24.9158 31.4553C24.5545 31.8273 24.4359 32.1568 24.3207 32.6579C24.3048 32.7254 24.2889 32.793 24.2725 32.8627C24.1223 33.511 23.987 34.1631 23.8552 34.8155C23.7358 35.4022 23.7358 35.4022 23.6264 35.6209C22.8409 35.6209 22.0554 35.6209 21.2461 35.6209C21.5134 34.1626 21.7853 32.7054 22.0673 31.2498C22.0984 31.0894 22.1294 30.9289 22.1603 30.7684C22.204 30.5417 22.248 30.3151 22.2921 30.0885C22.3052 30.0204 22.3183 29.9523 22.3318 29.8822C22.386 29.6053 22.4461 29.3431 22.5354 29.075C23.2882 29.075 24.041 29.075 24.8166 29.075C24.7838 29.2386 24.7511 29.4023 24.7174 29.5709C24.7832 29.5362 24.8491 29.5016 24.9169 29.4659C25.0045 29.4208 25.0921 29.3756 25.1823 29.3291C25.2686 29.2843 25.3549 29.2394 25.4438 29.1931C25.8405 29.0165 26.2013 28.9623 26.6328 28.9696Z" fill="white"/>
<path d="M72.6235 28.975C72.4926 29.6951 72.3617 30.4151 72.2268 31.157C71.9323 31.157 71.6377 31.157 71.3342 31.157C70.7238 31.3186 70.397 31.5107 70.0449 32.0496C69.9383 32.3236 69.8797 32.6008 69.8229 32.8888C69.806 32.9672 69.789 33.0456 69.7716 33.1264C69.7185 33.3746 69.6678 33.6233 69.6171 33.8721C69.5813 34.0414 69.5454 34.2107 69.5092 34.38C69.4212 34.7929 69.3364 35.2064 69.2514 35.6201C68.4659 35.6201 67.6804 35.6201 66.8711 35.6201C66.9827 34.6156 66.9827 34.6156 67.0801 34.1179C67.1016 34.0071 67.1231 33.8963 67.1453 33.7821C67.1683 33.6655 67.1914 33.5489 67.2151 33.4288C67.2509 33.2462 67.2509 33.2462 67.2874 33.0598C67.3503 32.7389 67.4136 32.4181 67.477 32.0973C67.5289 31.8342 67.5802 31.571 67.6315 31.3078C67.6928 30.994 67.7546 30.6803 67.8164 30.3667C67.8394 30.2485 67.8625 30.1303 67.8862 30.0085C67.9077 29.9002 67.9293 29.7919 67.9514 29.6803C67.9703 29.5846 67.9891 29.4888 68.0086 29.3902C68.0613 29.1734 68.0613 29.1734 68.1604 29.0742C68.3226 29.0656 68.4851 29.0636 68.6474 29.0645C68.7946 29.065 68.7946 29.065 68.9448 29.0655C69.048 29.0663 69.1512 29.0672 69.2576 29.068C69.413 29.0687 69.413 29.0687 69.5716 29.0694C69.8286 29.0705 70.0855 29.0722 70.3424 29.0742C70.3915 29.2706 70.3915 29.2706 70.4416 29.4709C70.5003 29.4434 70.5589 29.416 70.6194 29.3876C71.3518 29.0519 71.791 28.975 72.6235 28.975Z" fill="white"/>
<path d="M51.0973 25.5039C51.1464 25.6021 51.1464 25.6021 51.1965 25.7023C51.0969 25.7492 50.9973 25.7961 50.8947 25.8445C48.9141 26.795 47.1601 27.9996 46.2375 30.0662C46.0588 30.6024 46.0656 31.1528 46.2561 31.6841C46.8949 32.6312 47.975 33.3096 49.0827 33.5685C49.5199 33.6478 49.9609 33.6937 50.4031 33.7359C50.2746 35.0633 50.2746 35.0633 50.1055 35.6203C49.6175 35.8643 48.6668 35.5024 48.161 35.3378C46.8124 34.7704 45.8234 33.937 45.1465 32.6449C45.1125 32.5807 45.0785 32.5165 45.0435 32.4504C44.6991 31.6876 44.7455 30.7877 44.9977 30.0042C45.822 28.0104 47.7099 26.8257 49.6096 25.9998C50.0992 25.815 50.5967 25.656 51.0973 25.5039Z" fill="#8E703C"/>
<path d="M44.8525 27.1901C45.6053 27.1901 46.3581 27.1901 47.1337 27.1901C46.6377 27.686 46.6377 27.686 46.422 27.8809C45.5615 28.6753 44.8817 29.7252 44.72 30.9043C44.6971 32.2162 45.2802 33.2084 46.1446 34.1544C46.6743 34.6674 47.2625 34.9692 47.9232 35.2787C48.2246 35.422 48.2246 35.422 48.5222 35.6204C46.7875 35.6204 45.0529 35.6204 43.2656 35.6204C43.3268 35.0084 43.39 34.4303 43.5126 33.8332C43.5272 33.7605 43.5417 33.6878 43.5566 33.6129C43.604 33.3767 43.6519 33.1406 43.6999 32.9046C43.7332 32.7392 43.7664 32.5739 43.7996 32.4085C43.8864 31.9763 43.9738 31.5443 44.0613 31.1123C44.1507 30.6702 44.2396 30.228 44.3285 29.7858C44.5026 28.9205 44.6774 28.0553 44.8525 27.1901Z" fill="white"/>
<path d="M46.8352 29.174C46.9344 29.5708 46.9344 29.5708 46.7361 30.4634C47.9471 30.4634 49.158 30.4634 50.4057 30.4634C50.2074 31.8519 50.2074 31.8519 50.1082 32.3478C49.653 32.37 49.1981 32.3861 48.7425 32.3968C48.5878 32.4013 48.4331 32.4074 48.2785 32.4151C46.9946 32.4779 46.9946 32.4779 46.6016 32.1571C46.3049 31.7214 46.1316 31.2933 46.141 30.7609C46.261 30.1548 46.4611 29.6644 46.8352 29.174Z" fill="white"/>
<path d="M50.2065 27.1522C50.3415 27.1552 50.4764 27.1579 50.6114 27.1603C50.9394 27.1673 51.2672 27.178 51.5951 27.1894C51.4641 27.844 51.3332 28.4986 51.1983 29.173C49.791 29.173 48.3836 29.173 46.9336 29.173C47.1024 28.751 47.2027 28.5597 47.4915 28.237C47.5541 28.1655 47.6168 28.094 47.6813 28.0204C47.7619 27.9425 47.8424 27.8647 47.9254 27.7845C48.0005 27.7055 48.0005 27.7055 48.0772 27.6249C48.7101 27.0454 49.3884 27.1209 50.2065 27.1522Z" fill="white"/>
<path d="M55.7624 24.0156C55.7624 24.1465 55.7624 24.2775 55.7624 24.4123C55.5803 24.5429 55.5803 24.5429 55.3285 24.6665C54.7618 24.9789 54.3908 25.3935 53.9802 25.8807C53.9137 25.9525 53.8473 26.0244 53.7788 26.0984C53.7133 26.0984 53.6478 26.0984 53.5804 26.0984C53.6322 25.8244 53.6904 25.5702 53.7788 25.305C52.8608 25.5596 52.8608 25.5596 52.0927 26.0984C52.06 25.902 52.0272 25.7057 51.9935 25.5033C51.9322 25.4951 51.8708 25.487 51.8076 25.4785C51.5968 25.4042 51.5968 25.4042 51.4728 25.2244C51.3984 25.0074 51.3984 25.0074 51.3984 24.6107C51.4882 24.6412 51.4882 24.6412 51.5798 24.6723C51.6987 24.7124 51.6987 24.7124 51.82 24.7533C51.8982 24.7797 51.9764 24.8062 52.0571 24.8335C52.4762 24.9966 52.4762 24.9966 52.8861 24.9082C52.788 24.8428 52.6898 24.7773 52.5886 24.7099C52.5886 24.6444 52.5886 24.579 52.5886 24.5115C52.6833 24.509 52.7781 24.5064 52.8757 24.5038C53.6283 24.4708 54.2333 24.3915 54.9372 24.1005C55.2199 23.9962 55.4637 23.9833 55.7624 24.0156Z" fill="#8E703C"/>
</g>
<defs>
<clipPath id="clip0_40001668_13917">
<rect width="92.7545" height="38" fill="white"/>
</clipPath>
</defs>
</svg>
